<?xml version="1.0" encoding="UTF-8"?>
<!-- Generator: Adobe Illustrator 21.0.0, SVG Export Plug-In . SVG Version: 6.00 Build 0)  -->
<svg version="1.1" id="Layer_1" xmlns="http://www.w3.org/2000/svg" xmlns:xlink="http://www.w3.org/1999/xlink" x="0px" y="0px" viewBox="0 0 165.5 44.6" style="enable-background:new 0 0 165.5 44.6;" xml:space="preserve">
<style type="text/css">
	.st0{fill:#FFFFFF;}
</style>
<path class="st0" d="M138.6,4.6c0.8,0,1.5-0.7,1.5-1.5V1.5c0-0.8-0.7-1.5-1.5-1.5c-0.8,0-1.5,0.7-1.5,1.5v1.7  C137.1,4,137.8,4.6,138.6,4.6"/>
<path class="st0" d="M79.4,24.3c-1.4,0-2.4-1.1-2.4-2.4V10.6c0-3-2.4-5.4-5.4-5.4H59.7c-1.5,0-2.9,0.7-3.9,1.7c-1-1-2.4-1.7-3.9-1.7  c-0.8,0-1.5,0.7-1.5,1.5c0,0.8,0.7,1.5,1.5,1.5c1.3,0,2.4,1.1,2.4,2.4v15.2c0,0.8,0.7,1.5,1.5,1.5c0.8,0,1.5-0.7,1.5-1.5V10.6  c0-1.4,1.1-2.4,2.4-2.4h11.8c1.3,0,2.4,1.1,2.4,2.4v11.3c0,3,2.4,5.4,5.4,5.4c0.8,0,1.5-0.7,1.5-1.5S80.2,24.3,79.4,24.3"/>
<path class="st0" d="M99,5.1H87.1c-3,0-5.4,2.4-5.4,5.4v11.3c0,3,2.4,5.4,5.4,5.4H99c3,0,5.4-2.4,5.4-5.4V10.6  C104.4,7.6,101.9,5.1,99,5.1 M101.4,21.9c0,1.4-1.1,2.5-2.5,2.5H87.1c-1.3,0-2.4-1.1-2.4-2.5V10.6c0-1.4,1.1-2.4,2.4-2.4H99  c1.3,0,2.5,1.1,2.5,2.4V21.9z"/>
<path class="st0" d="M17.4,14.7h-12c-1.4,0-2.4-1.1-2.4-2.4v-1.7c0-1.4,1.1-2.4,2.4-2.4h12c1.3,0,2.4,1.1,2.4,2.4  c0,0.8,0.7,1.5,1.5,1.5c0.8,0,1.5-0.7,1.5-1.5c0-3-2.4-5.4-5.4-5.4h-12c-3,0-5.4,2.4-5.4,5.4v1.7c0,3,2.4,5.4,5.4,5.4h12  c1.3,0,2.4,1.1,2.4,2.4v1.7c0,1.4-1.1,2.5-2.4,2.5h-12c-1.4,0-2.4-1.1-2.4-2.5c0-0.8-0.7-1.5-1.5-1.5C0.7,20.4,0,21,0,21.9  c0,3,2.4,5.4,5.4,5.4h12c3,0,5.4-2.4,5.4-5.4v-1.7C22.8,17.2,20.4,14.7,17.4,14.7"/>
<path class="st0" d="M50.6,24.3c-1.4,0-2.4-1.1-2.4-2.4v-1.7v-9.6c0-3-2.4-5.4-5.4-5.4H30.9c-3,0-5.4,2.4-5.4,5.4  c0,0.8,0.7,1.5,1.5,1.5c0.8,0,1.5-0.7,1.5-1.5c0-1.4,1.1-2.4,2.4-2.4h11.8c1.4,0,2.4,1.1,2.4,2.4v4.7c-0.7-0.4-1.6-0.6-2.4-0.6H30.9  c-3,0-5.4,2.4-5.4,5.4v1.7c0,3,2.4,5.4,5.4,5.4h11.8c1.5,0,2.9-0.7,3.9-1.7c1,1,2.4,1.7,3.9,1.7c0.8,0,1.5-0.7,1.5-1.5  S51.4,24.3,50.6,24.3 M42.7,24.3H30.9c-1.4,0-2.4-1.1-2.4-2.4v-1.7c0-1.3,1.1-2.4,2.4-2.4h11.8c1.4,0,2.4,1.1,2.4,2.4v1.7  C45.2,23.2,44.1,24.3,42.7,24.3"/>
<path class="st0" d="M142.5,24.3c-1.4,0-2.4-1.1-2.4-2.4V10.6c0-3-2.4-5.4-5.4-5.4c-0.8,0-1.5,0.7-1.5,1.5c0,0.8,0.7,1.5,1.5,1.5  c1.3,0,2.4,1.1,2.4,2.4v11.2c0,3,2.4,5.4,5.4,5.4c0.8,0,1.5-0.7,1.5-1.5C144,25,143.4,24.3,142.5,24.3"/>
<path class="st0" d="M129.4,5.1c-3.3,0-4.3,3.1-4.7,4.2l-4.5,13.5c-0.3,0.9-1.1,1.5-2,1.5c-0.9,0-1.7-0.6-2-1.5l-4.5-13.5  c-0.4-1.1-1.4-4.2-4.7-4.2c-0.8,0-1.5,0.7-1.5,1.5c0,0.8,0.7,1.5,1.5,1.5c1,0,1.4,0.8,1.9,2.2l4.5,13.5c0.7,2.1,2.7,3.5,4.9,3.5  c2.2,0,4.2-1.4,4.9-3.5l4.5-13.5c0.5-1.4,0.9-2.2,1.9-2.2c0.8,0,1.5-0.7,1.5-1.5C130.9,5.8,130.2,5.1,129.4,5.1"/>
<path class="st0" d="M163.6,20.4c-0.8,0-1.5,0.7-1.5,1.5c0,1.4-1.1,2.4-2.4,2.4h-8c-1.4,0-2.4-1.1-2.4-2.4V10.6  c0-1.4,1.1-2.4,2.4-2.4h8c0.8,0,1.5-0.7,1.5-1.5c0-0.8-0.7-1.5-1.5-1.5h-8c-0.9,0-1.7,0.2-2.4,0.6V1.5c0-0.8-0.7-1.5-1.5-1.5  c-0.8,0-1.5,0.7-1.5,1.5v20.4c0,3,2.4,5.4,5.4,5.4h8c3,0,5.4-2.4,5.4-5.4C165.1,21,164.5,20.4,163.6,20.4"/>
<path class="st0" d="M163.7,38.6h-2.6c-0.2,0-0.4,0.1-0.6,0.2c-0.2,0.2-0.2,0.3-0.2,0.6v5.2h0.9c0.1,0,0.1,0,0.1-0.1v-4.8  c0-0.1,0-0.1,0.1-0.1h2.2c0.2,0,0.4,0.1,0.5,0.2c0.1,0.1,0.2,0.3,0.2,0.5v4.2c0,0.1,0,0.1,0.1,0.1h0.9v-4.3c0-0.2,0-0.5-0.1-0.7  c-0.1-0.2-0.2-0.4-0.4-0.6c-0.2-0.2-0.3-0.3-0.6-0.4C164.2,38.6,164,38.6,163.7,38.6 M157.8,35.9v1c0,0.1,0,0.1,0.1,0.1h0.9v-1  c0-0.1,0-0.1-0.1-0.1H157.8z M157.8,38.6v5.9c0,0.1,0,0.1,0.1,0.1h0.9v-5.9c0-0.1,0-0.1-0.1-0.1H157.8z M151.5,41.3l3.8,0.9  c0.1,0,0.1,0.1,0.1,0.1V43c0,0.2-0.1,0.4-0.2,0.5c-0.1,0.1-0.3,0.2-0.5,0.2h-3.3c-0.1,0-0.1,0-0.1,0.1v0.9h3.4c0.2,0,0.5,0,0.7-0.1  s0.4-0.2,0.5-0.3c0.2-0.1,0.3-0.3,0.4-0.5c0.1-0.2,0.1-0.4,0.1-0.7v-1.1c0-0.1,0-0.2-0.1-0.3c-0.1-0.1-0.1-0.1-0.2-0.1l-3.7-0.9  c-0.1,0-0.1-0.1-0.1-0.1v-0.3c0-0.4,0.2-0.6,0.6-0.6h3.2c0.1,0,0.1,0,0.1-0.1v-0.9h-3.3c-0.5,0-0.9,0.1-1.2,0.4  c-0.3,0.3-0.5,0.7-0.5,1.2v0.8c0,0.1,0,0.2,0.1,0.3C151.3,41.3,151.4,41.3,151.5,41.3 M146,42.4c0-0.2,0.1-0.4,0.2-0.5  c0.1-0.1,0.3-0.2,0.5-0.2h1.9c0.2,0,0.3-0.1,0.3-0.2l0,1.9c0,0.1,0,0.1-0.1,0.1h-2c-0.2,0-0.4-0.1-0.5-0.2c-0.1-0.1-0.2-0.3-0.2-0.5  V42.4z M145.6,38.6v0.9c0,0.1,0,0.1,0.1,0.1h2.4c0.2,0,0.4,0.1,0.5,0.2c0.1,0.1,0.2,0.3,0.2,0.5v0.3c0,0.1,0,0.1-0.1,0.1h-2  c-0.2,0-0.5,0-0.7,0.1c-0.2,0.1-0.4,0.2-0.6,0.4c-0.2,0.2-0.3,0.3-0.4,0.6c-0.1,0.2-0.1,0.4-0.1,0.7v0.4c0,0.2,0,0.5,0.1,0.7  s0.2,0.4,0.4,0.6c0.2,0.2,0.3,0.3,0.6,0.4c0.2,0.1,0.4,0.1,0.7,0.1h2.2h0.5h0.1c0.1,0,0.2,0,0.3-0.1c0.1-0.1,0.1-0.2,0.1-0.3v-3.9  c0-0.3,0-0.5-0.1-0.7c-0.1-0.2-0.2-0.4-0.4-0.5c-0.2-0.1-0.3-0.3-0.6-0.3c-0.2-0.1-0.4-0.1-0.7-0.1H145.6z M142.7,42.9  c0,0.2-0.1,0.4-0.2,0.5c-0.1,0.1-0.3,0.2-0.5,0.2H140c-0.1,0-0.1,0-0.1-0.1v-3.3c0-0.2,0.1-0.3,0.2-0.4s0.2-0.2,0.4-0.2h1.6  c0.2,0,0.4,0.1,0.5,0.2c0.1,0.1,0.2,0.3,0.2,0.5V42.9z M140.7,38.6c-0.2,0-0.3,0-0.5,0.1c-0.1,0.1-0.3,0.2-0.3,0.3v-3.3  c0-0.1,0-0.1-0.1-0.1h-0.9v8.6c0,0.1,0,0.2,0.1,0.3c0.1,0.1,0.2,0.1,0.3,0.1h2.9c0.2,0,0.5,0,0.7-0.1s0.4-0.2,0.6-0.4  c0.2-0.2,0.3-0.3,0.4-0.6c0.1-0.2,0.1-0.4,0.1-0.7v-2.5c0-0.2,0-0.5-0.1-0.7c-0.1-0.2-0.2-0.4-0.4-0.6c-0.2-0.2-0.3-0.3-0.6-0.4  s-0.4-0.1-0.7-0.1H140.7z M132.3,44.4c0,0.1,0,0.1,0.1,0.1h0.9v-4.4c0-0.2,0.1-0.3,0.2-0.4c0.1-0.1,0.2-0.2,0.4-0.2h1.7  c0.2,0,0.4,0.1,0.5,0.2c0.1,0.1,0.2,0.3,0.2,0.5v4.2c0,0.1,0,0.1,0.1,0.1h0.9v-4.3c0-0.6-0.2-1-0.5-1.3c-0.3-0.3-0.7-0.4-1.2-0.4  h-1.5c-0.2,0-0.3,0-0.5,0.1c-0.1,0.1-0.3,0.2-0.3,0.3v-3.3c0-0.1,0-0.1-0.1-0.1h-0.9V44.4z M126,41.3l3.8,0.9c0.1,0,0.1,0.1,0.1,0.1  V43c0,0.2-0.1,0.4-0.2,0.5c-0.1,0.1-0.3,0.2-0.5,0.2h-3.3c-0.1,0-0.1,0-0.1,0.1v0.9h3.4c0.2,0,0.5,0,0.7-0.1  c0.2-0.1,0.4-0.2,0.5-0.3c0.2-0.1,0.3-0.3,0.4-0.5c0.1-0.2,0.1-0.4,0.1-0.7v-1.1c0-0.1,0-0.2-0.1-0.3c-0.1-0.1-0.1-0.1-0.2-0.1  l-3.7-0.9c-0.1,0-0.1-0.1-0.1-0.1v-0.3c0-0.4,0.2-0.6,0.6-0.6h3.2c0.1,0,0.1,0,0.1-0.1v-0.9h-3.3c-0.5,0-0.9,0.1-1.2,0.4  c-0.3,0.3-0.5,0.7-0.5,1.2v0.8c0,0.1,0,0.2,0.1,0.3C125.8,41.3,125.9,41.3,126,41.3 M120.5,42.4c0-0.2,0.1-0.4,0.2-0.5  c0.1-0.1,0.3-0.2,0.5-0.2h1.9c0.2,0,0.3-0.1,0.3-0.2l0,1.9c0,0.1,0,0.1-0.1,0.1h-2c-0.2,0-0.4-0.1-0.5-0.2c-0.1-0.1-0.2-0.3-0.2-0.5  V42.4z M120.1,38.6v0.9c0,0.1,0,0.1,0.1,0.1h2.4c0.2,0,0.4,0.1,0.5,0.2c0.1,0.1,0.2,0.3,0.2,0.5v0.3c0,0.1,0,0.1-0.1,0.1h-2  c-0.2,0-0.5,0-0.7,0.1c-0.2,0.1-0.4,0.2-0.6,0.4c-0.2,0.2-0.3,0.3-0.4,0.6c-0.1,0.2-0.1,0.4-0.1,0.7v0.4c0,0.2,0,0.5,0.1,0.7  s0.2,0.4,0.4,0.6c0.2,0.2,0.3,0.3,0.6,0.4c0.2,0.1,0.4,0.1,0.7,0.1h2.2h0.5h0.1c0.1,0,0.2,0,0.3-0.1c0.1-0.1,0.1-0.2,0.1-0.3v-3.9  c0-0.3,0-0.5-0.1-0.7c-0.1-0.2-0.2-0.4-0.4-0.5c-0.2-0.1-0.3-0.3-0.6-0.3c-0.2-0.1-0.4-0.1-0.7-0.1H120.1z M117.3,35.5  c-0.1,0-0.2,0.1-0.2,0.2v7.6c0,0.1,0,0.1-0.1,0.2c0,0-0.1,0.1-0.2,0.1h-2.8c-0.1,0-0.1,0-0.2-0.1c0,0-0.1-0.1-0.1-0.2v-7.6  c0-0.1-0.1-0.2-0.2-0.2h-1V43c0,0.2,0.1,0.4,0.2,0.6h-2.6c-0.3,0-0.5-0.1-0.7-0.2c-0.2-0.2-0.3-0.4-0.3-0.6v-7  c0-0.1-0.1-0.2-0.2-0.2h-1v7c0,0.3,0.1,0.5,0.2,0.8c0.1,0.2,0.3,0.5,0.4,0.6c0.2,0.2,0.4,0.3,0.7,0.4s0.5,0.2,0.8,0.2h7.1  c0.2,0,0.4-0.1,0.5-0.2c0.1-0.1,0.2-0.3,0.2-0.5v-8.3H117.3z M102.9,44.1h-1.1c-0.3,0-0.5-0.1-0.7-0.3c-0.2-0.2-0.3-0.4-0.3-0.7v-4  h1.7c0.1,0,0.1,0,0.1-0.1v-0.4h-1.5c-0.1,0-0.2,0-0.2,0.1c-0.1,0-0.1,0.1-0.1,0.2v-3.1c0-0.1,0-0.1-0.1-0.1h-0.4v7.5  c0,0.2,0,0.4,0.1,0.6c0.1,0.2,0.2,0.3,0.3,0.5c0.1,0.1,0.3,0.2,0.5,0.3c0.2,0.1,0.4,0.1,0.6,0.1h1.2v-0.4  C103.1,44.1,103,44.1,102.9,44.1 M98.4,42.5v0.8c0,0.3-0.1,0.5-0.3,0.6c-0.2,0.1-0.4,0.2-0.7,0.2h-3.1c-0.1,0-0.1,0-0.1,0.1v0.4h3.2  c0.2,0,0.4,0,0.6-0.1c0.2-0.1,0.3-0.1,0.5-0.3c0.1-0.1,0.2-0.3,0.3-0.4c0.1-0.2,0.1-0.3,0.1-0.6v-0.9c0-0.1,0-0.2-0.1-0.3  c-0.1-0.1-0.1-0.1-0.2-0.2l-3.7-1.3c-0.1,0-0.1-0.1-0.1-0.2v-0.4c0-0.3,0.1-0.5,0.3-0.6c0.2-0.2,0.4-0.2,0.7-0.2h2.6  c0.1,0,0.1,0,0.1-0.1v-0.4h-2.8c-0.4,0-0.8,0.1-1.1,0.4c-0.3,0.2-0.4,0.6-0.4,1v0.6c0,0.1,0,0.2,0.1,0.3c0.1,0.1,0.1,0.1,0.2,0.2  l3.7,1.3c0,0,0.1,0,0.1,0.1C98.4,42.4,98.4,42.4,98.4,42.5 M88.1,43.1c0,0.2,0,0.4,0.1,0.6c0.1,0.2,0.2,0.3,0.3,0.5  c0.1,0.1,0.3,0.2,0.5,0.3c0.2,0.1,0.4,0.1,0.6,0.1h1.8c0.2,0,0.4,0,0.6-0.1c0.2-0.1,0.3-0.2,0.5-0.3c0.1-0.1,0.2-0.3,0.3-0.5  c0.1-0.2,0.1-0.4,0.1-0.6v-4.5h-0.4c-0.1,0-0.1,0-0.1,0.1v4.4c0,0.3-0.1,0.5-0.3,0.7c-0.2,0.2-0.4,0.3-0.7,0.3h-1.8  c-0.3,0-0.5-0.1-0.7-0.3c-0.2-0.2-0.3-0.4-0.3-0.7v-4.4c0-0.1,0-0.1-0.1-0.1h-0.4V43.1z M82,44.4c0,0.1,0,0.1,0.1,0.1h2.7  c0.3,0,0.5,0,0.7-0.2c0.2-0.1,0.4-0.2,0.6-0.4c0.2-0.2,0.3-0.4,0.4-0.6c0.1-0.2,0.2-0.5,0.2-0.7v-7.1h-2.3v0.4c0,0.1,0,0.1,0.1,0.1  H86v6.7c0,0.2,0,0.3-0.1,0.5c-0.1,0.2-0.2,0.3-0.3,0.4c-0.1,0.1-0.2,0.2-0.4,0.3c-0.2,0.1-0.3,0.1-0.5,0.1H82V44.4z"/>
</svg>